<svg width="24" height="24" viewBox="0 0 24 24" fill="none" xmlns="http://www.w3.org/2000/svg">
    <path d="M20.001 15.25a.75.75 0 0 1 .75.75v2.5a2.25 2.25 0 0 1-2.25 2.25H5.5a2.25 2.25 0 0 1-2.25-2.25V16a.75.75 0 0 1 1.5 0v2.5c0 .414.336.75.75.75h13.001a.75.75 0 0 0 .75-.75V16a.75.75 0 0 1 .75-.75zm-7.999-12a.75.75 0 0 1 .75.75v10.185l3.343-3.34a.75.75 0 0 1 1.06 1.06l-4.6 4.597a.744.744 0 0 1-.076.071l-.012.01a.742.742 0 0 1-.896.03.747.747 0 0 1-.087-.073l-.017-.016-4.622-4.619a.75.75 0 0 1 1.06-1.06l3.347 3.345V4a.75.75 0 0 1 .75-.75z" fill="#344054"/>
</svg>
