<svg width="24" height="24" viewBox="0 0 24 24" fill="none" xmlns="http://www.w3.org/2000/svg">
    <path d="M13.519 2c1.233 0 2.233 1 2.233 2.233 0 .565.612.918 1.1.636a2.234 2.234 0 0 1 3.051.818l1.517 2.626a2.234 2.234 0 0 1-.818 3.051.734.734 0 0 0 0 1.272 2.233 2.233 0 0 1 .817 3.05l-1.516 2.628a2.234 2.234 0 0 1-3.05.817.734.734 0 0 0-1.1.636C15.751 21 14.752 22 13.518 22h-3.033c-1.233 0-2.234-1-2.234-2.234a.734.734 0 0 0-1.101-.635 2.235 2.235 0 0 1-3.052-.819l-1.516-2.626a2.233 2.233 0 0 1 .818-3.05.734.734 0 0 0 0-1.272 2.233 2.233 0 0 1-.818-3.05L4.1 5.686A2.235 2.235 0 0 1 7.15 4.87a.734.734 0 0 0 1.101-.635c0-1.233 1-2.234 2.234-2.234h3.033zm-3.033 1.5a.735.735 0 0 0-.734.734c0 1.72-1.862 2.795-3.351 1.935a.734.734 0 0 0-1.003.269L3.882 9.063c-.202.351-.082.8.269 1.002 1.489.86 1.489 3.01 0 3.87a.734.734 0 0 0-.269 1.002l1.516 2.626a.734.734 0 0 0 1.003.268c1.489-.86 3.35.215 3.351 1.935 0 .405.33.734.734.734h3.033a.734.734 0 0 0 .733-.733c0-1.72 1.861-2.795 3.35-1.935a.733.733 0 0 0 1.002-.268l1.516-2.627a.733.733 0 0 0-.268-1.002c-1.49-.86-1.49-3.01 0-3.87a.733.733 0 0 0 .268-1.002l-1.515-2.626a.734.734 0 0 0-1.002-.269c-1.49.86-3.35-.215-3.35-1.935a.734.734 0 0 0-.734-.733h-3.033zm1.515 4.665a3.835 3.835 0 1 1 0 7.67 3.835 3.835 0 0 1 0-7.67zm0 1.5a2.335 2.335 0 1 0 0 4.67 2.335 2.335 0 0 0 0-4.67z" fill="#344054"/>
</svg>
